PathFileType	4	(X/Y/Z)	output.trc
DataRate	CameraRate	NumFrames	NumMarkers	Units	OrigDataRate	OrigDataStartFrame	OrigNumFrames
100	100	12	23	m	100	1606	4280
Frame#	Time	C7			T8			EL			EM			US			RS			AA			Fore_Clus_1			Fore_Clus_2			Fore_Clus_3			Fore_Clus_4			Hum_Clus_1			Hum_Clus_2			Hum_Clus_3			Hum_Clus_4			Thor_Clus_1			Thor_Clus_2			Thor_Clus_3			Thor_Clus_4			IJ			PX			GH			Thor_Clus_5		
		X1	Y1	Z1	X2	Y2	Z2	X3	Y3	Z3	X4	Y4	Z4	X5	Y5	Z5	X6	Y6	Z6	X7	Y7	Z7	X8	Y8	Z8	X9	Y9	Z9	X10	Y10	Z10	X11	Y11	Z11	X12	Y12	Z12	X13	Y13	Z13	X14	Y14	Z14	X15	Y15	Z15	X16	Y16	Z16	X17	Y17	Z17	X18	Y18	Z18	X19	Y19	Z19	X20	Y20	Z20	X21	Y21	Z21	X22	Y22	Z22	X23	Y23	Z23
1605	16.050000	-0.061591	1.634208	-0.067539	-0.090922	1.400919	-0.146286	-0.208473	1.202527	0.157294	-0.180971	1.190523	0.091684	-0.062953	1.053146	0.334978	-0.039456	1.103329	0.344272	-0.201050	1.538087	0.096717	-0.115004	1.092227	0.332445	-0.081923	1.072467	0.371003	-0.069053	1.097221	0.372720	-0.093593	1.131933	0.334038	-0.181214	1.320159	0.195524	-0.233810	1.328550	0.167514	-0.233271	1.392044	0.162610	-0.177906	1.392977	0.181813	0.091349	1.515595	0.033150	0.063963	1.456690	0.087247	0.057955	1.508349	0.061428	0.112754	1.467275	0.046002	0.015785	1.528785	0.011251	0.050880	1.337864	0.024153	-0.165291	1.523669	0.087801	0.055137	1.478334	0.081667
1606	16.060000	-0.061600	1.634306	-0.067687	-0.090865	1.401033	-0.146503	-0.208774	1.202522	0.156881	-0.181216	1.190569	0.091286	-0.063601	1.052608	0.334478	-0.040016	1.102733	0.343864	-0.201198	1.538155	0.096433	-0.115525	1.091757	0.331947	-0.082483	1.071894	0.370466	-0.069722	1.096635	0.372299	-0.094078	1.131389	0.333656	-0.181590	1.320113	0.195266	-0.234196	1.328566	0.167222	-0.233565	1.392080	0.162353	-0.178220	1.392937	0.181597	0.091489	1.515735	0.033248	0.063832	1.456736	0.087174	0.057836	1.508387	0.061351	0.112642	1.467335	0.045947	0.015709	1.528869	0.011148	0.050793	1.337945	0.024044	-0.165445	1.523715	0.087714	0.054282	1.477979	0.081196
1607	16.070000	-0.061635	1.634393	-0.067817	-0.090844	1.401129	-0.146681	-0.209066	1.202507	0.156459	-0.181450	1.190607	0.090878	-0.064180	1.052157	0.333980	-0.040536	1.102237	0.343456	-0.201336	1.538217	0.096201	-0.116016	1.091293	0.331409	-0.083109	1.071340	0.369887	-0.070362	1.096092	0.371848	-0.094569	1.130924	0.333285	-0.181961	1.320064	0.194991	-0.234531	1.328563	0.166924	-0.233843	1.392081	0.162101	-0.178513	1.392881	0.181352	0.091558	1.515898	0.033309	0.063700	1.456791	0.087123	0.057698	1.508421	0.061269	0.112522	1.467398	0.045884	0.015627	1.528947	0.011055	0.050706	1.338022	0.023948	-0.165595	1.523752	0.087625	0.054370	1.478184	0.081232
1608	16.080000	-0.061690	1.634472	-0.067924	-0.090857	1.401215	-0.146825	-0.209349	1.202482	0.156027	-0.181674	1.190637	0.090461	-0.064691	1.051787	0.333483	-0.041016	1.101836	0.343044	-0.201464	1.538277	0.096021	-0.116429	1.091021	0.330754	-0.083568	1.070962	0.369433	-0.070822	1.095714	0.371435	-0.094955	1.130605	0.332881	-0.182242	1.320036	0.194703	-0.234805	1.328566	0.166597	-0.234082	1.392090	0.161852	-0.178758	1.392847	0.181138	0.091402	1.515935	0.033202	0.063563	1.456854	0.087049	0.057574	1.508488	0.061191	0.112416	1.467482	0.045814	0.015538	1.529021	0.010972	0.050616	1.338096	0.023863	-0.165739	1.523781	0.087534	0.054259	1.478272	0.081147
1609	16.090000	-0.061791	1.634503	-0.068036	-0.090895	1.401235	-0.146925	-0.209623	1.202447	0.155591	-0.181887	1.190658	0.090040	-0.065132	1.051501	0.332996	-0.041454	1.101532	0.342640	-0.201592	1.538298	0.095878	-0.116892	1.090715	0.330357	-0.084086	1.070612	0.368973	-0.071189	1.095349	0.370905	-0.095423	1.130331	0.332428	-0.182512	1.319941	0.194441	-0.235044	1.328533	0.166298	-0.234296	1.392062	0.161615	-0.179019	1.392793	0.180947	0.091277	1.516000	0.033167	0.063435	1.456933	0.086998	0.057429	1.508533	0.061068	0.112300	1.467580	0.045845	0.015434	1.529072	0.010890	0.050542	1.338154	0.023807	-0.165878	1.523801	0.087440	0.054131	1.478325	0.081067
1610	16.100000	-0.061920	1.634510	-0.068143	-0.090956	1.401221	-0.146995	-0.209889	1.202404	0.155150	-0.182091	1.190670	0.089617	-0.065509	1.051290	0.332517	-0.041850	1.101316	0.342237	-0.201719	1.538298	0.095770	-0.117286	1.090536	0.329918	-0.084439	1.070385	0.368519	-0.071548	1.095125	0.370428	-0.095869	1.130198	0.331972	-0.182719	1.319879	0.194136	-0.235225	1.328507	0.165977	-0.234511	1.392026	0.161390	-0.179203	1.392757	0.180725	0.091128	1.516055	0.033070	0.063290	1.457002	0.086942	0.057319	1.508606	0.061016	0.112251	1.467789	0.045851	0.015321	1.529111	0.010812	0.050475	1.338204	0.023767	-0.166014	1.523812	0.087343	0.054239	1.478524	0.081174
1611	16.110000	-0.062087	1.634471	-0.068260	-0.091029	1.401144	-0.147036	-0.210148	1.202352	0.154710	-0.182285	1.190674	0.089193	-0.065820	1.051156	0.332054	-0.042201	1.101187	0.341842	-0.201852	1.538257	0.095681	-0.117591	1.090387	0.329437	-0.084793	1.070241	0.368053	-0.071827	1.094946	0.369955	-0.096183	1.130069	0.331541	-0.182894	1.319794	0.193837	-0.235414	1.328439	0.165614	-0.234697	1.391949	0.161128	-0.179412	1.392678	0.180492	0.090994	1.516110	0.032997	0.063175	1.457073	0.086879	0.057176	1.508663	0.060977	0.112140	1.467847	0.045783	0.015194	1.529129	0.010731	0.050423	1.338240	0.023749	-0.166147	1.523816	0.087244	0.054483	1.478793	0.081359
1612	16.120000	-0.062289	1.634386	-0.068395	-0.091108	1.401006	-0.147057	-0.210399	1.202295	0.154271	-0.182471	1.190672	0.088773	-0.066070	1.051095	0.331611	-0.042506	1.101142	0.341456	-0.201993	1.538176	0.095600	-0.117868	1.090316	0.328944	-0.085141	1.070172	0.367607	-0.072203	1.094918	0.369521	-0.096450	1.130002	0.331129	-0.183101	1.319693	0.193436	-0.235595	1.328353	0.165260	-0.234860	1.391895	0.160854	-0.179607	1.392572	0.180250	0.090840	1.516175	0.032940	0.063062	1.457141	0.086831	0.057067	1.508715	0.060909	0.112047	1.467939	0.045694	0.015053	1.529124	0.010643	0.050387	1.338261	0.023752	-0.166279	1.523812	0.087141	0.054333	1.478820	0.081254
1613	16.130000	-0.062506	1.634281	-0.068540	-0.091189	1.400839	-0.147071	-0.210644	1.202234	0.153837	-0.182650	1.190664	0.088357	-0.066266	1.051104	0.331189	-0.042766	1.101172	0.341077	-0.202140	1.538075	0.095519	-0.118118	1.090262	0.328549	-0.085463	1.070130	0.367212	-0.072586	1.094873	0.369213	-0.096715	1.129972	0.330742	-0.183348	1.319550	0.193101	-0.235781	1.328243	0.164878	-0.235065	1.391793	0.160551	-0.179827	1.392460	0.180013	0.090718	1.516235	0.032859	0.062945	1.457200	0.086780	0.056949	1.508738	0.060832	0.111922	1.468049	0.045729	0.014905	1.529110	0.010551	0.050357	1.338275	0.023762	-0.166411	1.523804	0.087035	0.054249	1.478909	0.081195
1614	16.140000	-0.062750	1.634131	-0.068713	-0.091260	1.400614	-0.147080	-0.210882	1.202171	0.153411	-0.182821	1.190654	0.087951	-0.066405	1.051182	0.330799	-0.042978	1.101279	0.340715	-0.202300	1.537934	0.095421	-0.118361	1.090251	0.328163	-0.085648	1.070177	0.366846	-0.072791	1.094917	0.368823	-0.096937	1.130006	0.330357	-0.183578	1.319442	0.192787	-0.235983	1.328148	0.164488	-0.235239	1.391719	0.160173	-0.180041	1.392375	0.179748	0.090604	1.516276	0.032788	0.062842	1.457248	0.086714	0.056655	1.508756	0.060667	0.111844	1.468126	0.045547	0.014747	1.529074	0.010446	0.050343	1.338276	0.023787	-0.166546	1.523793	0.086925	0.054150	1.478949	0.081126
1615	16.150000	-0.062990	1.633979	-0.068898	-0.091323	1.400385	-0.147103	-0.211113	1.202110	0.152995	-0.182986	1.190642	0.087555	-0.066498	1.051322	0.330438	-0.043145	1.101451	0.340364	-0.202467	1.537789	0.095303	-0.118536	1.090282	0.327814	-0.085753	1.070254	0.366500	-0.072973	1.095048	0.368474	-0.097196	1.130049	0.330011	-0.183849	1.319326	0.192484	-0.236206	1.328056	0.164093	-0.235462	1.391618	0.159824	-0.180312	1.392284	0.179498	0.090303	1.516235	0.032606	0.062689	1.457282	0.086656	0.056550	1.508785	0.060588	0.111722	1.468166	0.045525	0.014587	1.529036	0.010333	0.050329	1.338274	0.023807	-0.166683	1.523781	0.086812	0.054073	1.478972	0.081052
1616	16.160000	-0.063230	1.633817	-0.069103	-0.091371	1.400144	-0.147142	-0.211337	1.202051	0.152594	-0.183144	1.190631	0.087173	-0.066547	1.051524	0.330113	-0.043266	1.101688	0.340030	-0.202642	1.537635	0.095157	-0.118633	1.090389	0.327506	-0.085834	1.070412	0.366145	-0.073105	1.095221	0.368179	-0.097406	1.130175	0.329654	-0.184113	1.319250	0.192205	-0.236440	1.327994	0.163744	-0.235708	1.391555	0.159518	-0.180593	1.392200	0.179240	0.089924	1.516163	0.032363	0.062576	1.457290	0.086585	0.056424	1.508804	0.060498	0.111624	1.468181	0.045402	0.014424	1.528992	0.010209	0.050317	1.338269	0.023823	-0.166825	1.523769	0.086695	0.053952	1.479073	0.080961
